<?xml version="1.0" encoding="UTF-8"?>
<svg width="18px" height="14px" viewBox="0 0 18 14" version="1.1" xmlns="http://www.w3.org/2000/svg" xmlns:xlink="http://www.w3.org/1999/xlink">
    <!-- Generator: Sketch 57 (83077) - https://sketch.com -->
    <title>AdMaps-nav</title>
    <desc>Created with Sketch.</desc>
    <g id="Page-1" stroke="none" stroke-width="1" fill="none" fill-rule="evenodd" opacity="0.8">
        <g id="Vector" transform="translate(0.000000, -0.200000)" fill="#BACEE4" fill-rule="nonzero">
            <path d="M10.485936,0.9140628 C10.739064,0.9140628 10.95,0.9984348 11.11872,1.1671908 C11.31564,1.335936 11.41404,1.546872 11.41404,1.8 L11.41404,10.2 C11.41404,10.45308 11.31564,10.66404 11.11872,10.83276 C10.95,11.0016 10.739064,11.08596 10.485936,11.08596 L7.785936,11.08596 C7.532808,11.08596 7.321872,11.0016 7.153128,10.83276 C6.984372,10.66404 6.9,10.45308 6.9,10.2 L6.9,1.8 C6.9,1.546872 6.984372,1.335936 7.153128,1.1671908 C7.321872,0.9984348 7.532808,0.9140628 7.785936,0.9140628 L10.485936,0.9140628 Z M16.81404,0.9140628 C17.06724,0.9140628 17.27808,0.9984348 17.44692,1.1671908 C17.61564,1.335936 17.7,1.546872 17.7,1.8 L17.7,12.6 C17.7,12.85308 17.61564,13.06404 17.44692,13.23276 C17.27808,13.4016 17.06724,13.48596 16.81404,13.48596 L14.11404,13.48596 C13.86096,13.48596 13.63596,13.4016 13.43904,13.23276 C13.27032,13.06404 13.18596,12.85308 13.18596,12.6 L13.18596,1.8 C13.18596,1.546872 13.27032,1.335936 13.43904,1.1671908 C13.63596,0.9984348 13.86096,0.9140628 14.11404,0.9140628 L16.81404,0.9140628 Z M4.2,0.9140628 C4.453128,0.9140628 4.664064,0.9984348 4.832808,1.1671908 C5.001564,1.335936 5.085936,1.546872 5.085936,1.8 L5.085936,7.8 C5.085936,8.053128 5.001564,8.264064 4.832808,8.43276 C4.664064,8.6016 4.453128,8.68596 4.2,8.68596 L1.5,8.68596 C1.246872,8.68596 1.0359348,8.6016 0.8671908,8.43276 C0.6984348,8.264064 0.6140628,8.053128 0.6140628,7.8 L0.6140628,1.8 C0.6140628,1.546872 0.6984348,1.335936 0.8671908,1.1671908 C1.0359348,0.9984348 1.246872,0.9140628 1.5,0.9140628 L4.2,0.9140628 Z" id="AdMaps-nav"></path>
        </g>
    </g>
</svg>