<svg xmlns="http://www.w3.org/2000/svg" viewBox="0 0 20.01 20.01"><defs><style>.cls-1{fill:#b8cfe7;}</style></defs><title>Asset 107</title><g id="Layer_2" data-name="Layer 2"><g id="Layer_1-2" data-name="Layer 1"><path class="cls-1" d="M4.71,9.44,9.23,4.93l-.84-.85h0l-.84-.83h0l-.83-.84-.84-.83L4.62.31A.48.48,0,0,0,4,.31L.54,3.75a1.06,1.06,0,0,0,0,1.51Z"/><path class="cls-1" d="M.4,20l5.46-2.12a.19.19,0,0,0,.07-.31L2.44,14.08a.18.18,0,0,0-.3.06L0,19.6A.3.3,0,0,0,.4,20Z"/><path class="cls-1" d="M18.43,14.13h0L16.9,12.59h0l-1.07-1.06-.42-.42-.33-.33-4.51,4.51,4.17,4.18a1.07,1.07,0,0,0,1.52,0L19.69,16a.45.45,0,0,0,0-.64Z"/><polygon class="cls-1" points="3.66 12.21 7.82 16.41 17.27 6.96 13.09 2.78 3.66 12.21"/><path class="cls-1" d="M18.51,5.68l1-1a1.83,1.83,0,0,0,0-2.6L17.88.54A1.78,1.78,0,0,0,16.59,0a1.82,1.82,0,0,0-1.3.54l-1,1L13.84,2,18,6.16Z"/></g></g></svg>