<?xml version="1.0" encoding="UTF-8"?>
<svg width="18px" height="13px" viewBox="0 0 18 13" version="1.1" xmlns="http://www.w3.org/2000/svg" xmlns:xlink="http://www.w3.org/1999/xlink">
    <!-- Generator: Sketch 54.1 (76490) - https://sketchapp.com -->
    <title>Collaboration</title>
    <desc>Created with Sketch.</desc>
    <g id="Page-1" stroke="none" stroke-width="1" fill="none" fill-rule="evenodd">
        <g id="Artboard" transform="translate(-1300.000000, -426.000000)" fill="#BACEE4" fill-rule="nonzero">
            <g id="Collaboration" transform="translate(1300.000000, 426.000000)">
                <circle id="Oval" cx="5.43" cy="2.53" r="2.53"></circle>
                <path d="M13.24,5.16 C14.1355263,5.14761506 14.9350363,4.59597407 15.2644862,3.7631575 C15.5939361,2.93034093 15.3881798,1.9810315 14.7434787,1.35935542 C14.0987776,0.737679343 13.142616,0.56656802 12.3223259,0.926074406 C11.5020358,1.28558079 10.9798229,2.10461541 11,3 C11,4.2205493 11.9894507,5.21 13.21,5.21 L13.24,5.16 Z" id="Path"></path>
                <path d="M9.76,8.27 C9.49074936,7.94075058 9.18924942,7.63925064 8.86,7.37 C7.88599039,6.5656299 6.66320662,6.12387276 5.4,6.12 C2.41766235,6.12 3.65231026e-16,8.53766235 0,11.52 L0,12.52 C2.4348735e-17,12.7188225 0.16117749,12.88 0.36,12.88 L10.5,12.88 C10.6988225,12.88 10.86,12.7188225 10.86,12.52 L10.86,11.59 C10.8748624,10.3914701 10.4875677,9.22254407 9.76,8.27 Z" id="Path"></path>
                <path d="M17,8 C15.502495,5.99941621 12.7051868,5.5127372 10.62,6.89 C10.9265084,7.15800508 11.2016028,7.45993805 11.44,7.79 C12.1026656,8.6903365 12.4537376,9.78217052 12.44,10.9 L12.44,10.9 L12.44,11.8 C12.4399181,11.9784191 12.5816628,12.1245934 12.76,12.13 L17.59,12.13 C17.7702357,12.1303121 17.9193982,11.9899239 17.93,11.81 C17.9344051,11.7768122 17.9344051,11.7431878 17.93,11.71 L17.93,10.81 C17.9336143,9.79715571 17.607139,8.81070884 17,8 L17,8 Z" id="Path"></path>
            </g>
        </g>
    </g>
</svg>