<?xml version="1.0" encoding="utf-8"?>
<!-- Generator: Adobe Illustrator 23.0.3, SVG Export Plug-In . SVG Version: 6.00 Build 0)  -->
<svg version="1.1" id="Layer_1" xmlns="http://www.w3.org/2000/svg" xmlns:xlink="http://www.w3.org/1999/xlink" x="0px" y="0px"
	 viewBox="0 0 20 14.3" style="enable-background:new 0 0 20 14.3;" xml:space="preserve">
<style type="text/css">
	.st0{fill:#BACEE4;}
</style>
<title>Asset 60</title>
<g>
	<g id="Layer_1-2">
		<path class="st0" d="M18.7,0H1.3C0.6,0,0,0.6,0,1.3V13c0,0.7,0.6,1.3,1.3,1.3h17.4c0.7,0,1.3-0.6,1.3-1.3V1.3
			C20,0.6,19.4,0,18.7,0z M13.7,2.8c1.1,0,1.9,0.9,1.9,1.9s-0.9,1.9-1.9,1.9c-1.1,0-1.9-0.9-1.9-1.9c0,0,0,0,0,0
			C11.7,3.6,12.6,2.7,13.7,2.8C13.7,2.7,13.7,2.7,13.7,2.8L13.7,2.8z M6.1,7.6v2.2H2.2V7.6H6.1z M8.5,5.6v1.1H2.2V4.5h6.3V5.6z
			 M17.4,11.6H10c-0.2,0-0.4-0.2-0.4-0.4c0,0,0,0,0,0c0.2-2.3,2.3-3.9,4.5-3.7c2,0.2,3.5,1.7,3.7,3.7C17.8,11.4,17.6,11.6,17.4,11.6
			C17.4,11.6,17.4,11.6,17.4,11.6L17.4,11.6z"/>
	</g>
</g>
</svg>
