<?xml version="1.0" encoding="utf-8"?>
<!-- Generator: Adobe Illustrator 23.0.3, SVG Export Plug-In . SVG Version: 6.00 Build 0)  -->
<svg version="1.1" id="Layer_1" xmlns="http://www.w3.org/2000/svg" xmlns:xlink="http://www.w3.org/1999/xlink" x="0px" y="0px"
	 viewBox="0 0 19.9 19.3" style="enable-background:new 0 0 19.9 19.3;" xml:space="preserve">
<style type="text/css">
	.st0{fill:#BACEE4;}
</style>
<title>Asset 62</title>
<g>
	<g id="Layer_1-2">
		<path class="st0" d="M18.8,7.3H1.1C0.4,7.4-0.1,8-0.1,8.7C0,8.8,0,8.9,0,9l1.3,6.5l0.4,2l0.2,0.8c0.1,0.6,0.6,1,1.1,1H17
			c0.6,0,1-0.4,1.1-1l0.2-0.8l0.4-2L19.9,9c0.2-0.7-0.2-1.4-0.9-1.6C19,7.3,18.9,7.3,18.8,7.3z"/>
		<path class="st0" d="M10,2.2c1.8,0,3.4,1.2,3.9,2.9h2.3c-0.7-3.4-4-5.7-7.4-5c-2.5,0.5-4.5,2.5-5,5H6C6.5,3.4,8.2,2.2,10,2.2z"/>
	</g>
</g>
</svg>
