<svg width="50" height="37" viewBox="0 0 50 37" fill="none" xmlns="http://www.w3.org/2000/svg">
<path fill-rule="evenodd" clip-rule="evenodd" d="M12.2516 0.735108C11.7616 0.245024 11.149 0 10.4139 0H2.57284C1.83774 0 1.22516 0.245024 0.735108 0.735108C0.245024 1.22516 0 1.83774 0 2.57284V19.9974C0 20.7325 0.245024 21.3451 0.735108 21.835C1.22516 22.3253 1.83774 22.5703 2.57284 22.5703H10.4139C11.149 22.5703 11.7616 22.3253 12.2516 21.835C12.7417 21.3451 12.9867 20.7325 12.9867 19.9974V2.57284C12.9867 1.83774 12.7417 1.22516 12.2516 0.735108ZM28.6689 0C29.404 0 30.0166 0.245024 30.5065 0.735108C31.0784 1.22516 31.3642 1.83774 31.3642 2.57284V26.9673C31.3642 27.7022 31.0784 28.3149 30.5065 28.8049C30.0166 29.2952 29.404 29.5402 28.6689 29.5402H20.8278C20.0927 29.5402 19.4801 29.2952 18.9901 28.8049C18.5 28.3149 18.255 27.7022 18.255 26.9673V2.57284C18.255 1.83774 18.5 1.22516 18.9901 0.735108C19.4801 0.245024 20.0927 0 20.8278 0H28.6689ZM47.0463 0C47.7816 0 48.3939 0.245024 48.8842 0.735108C49.3742 1.22516 49.6192 1.83774 49.6192 2.57284V33.9371C49.6192 34.6721 49.3742 35.2847 48.8842 35.7747C48.3939 36.265 47.7816 36.51 47.0463 36.51H39.2052C38.4703 36.51 37.8168 36.265 37.245 35.7747C36.755 35.2847 36.51 34.6721 36.51 33.9371V2.57284C36.51 1.83774 36.755 1.22516 37.245 0.735108C37.8168 0.245024 38.4703 0 39.2052 0H47.0463Z" fill="#3D84FE"/>
</svg>
