<svg width="38" height="50" viewBox="0 0 38 50" fill="none" xmlns="http://www.w3.org/2000/svg">
<path d="M34.4723 0H3.30561C1.63341 0 0.277832 1.35558 0.277832 3.02778V5.25H37.5001V3.02778C37.5001 1.35558 36.1445 0 34.4723 0Z" fill="#6F4FF6"/>
<path fill-rule="evenodd" clip-rule="evenodd" d="M0.277896 10.7222V46.8333C0.197516 48.4655 1.42689 49.867 3.05567 49.9999H34.4723C36.1445 49.9999 37.5001 48.6444 37.5001 46.9722V10.8611L0.277896 10.7222ZM18.889 19.4444C20.8659 19.3997 22.6706 20.5638 23.4452 22.3831C24.2198 24.2025 23.8081 26.3101 22.4057 27.7042C21.0034 29.0983 18.8933 29.4976 17.0786 28.7123C15.2638 27.927 14.1105 26.1154 14.1668 24.1388C14.2113 21.5648 16.2872 19.4889 18.8612 19.4444H18.889ZM9.61123 41.3055H28.0557L28.2779 41.4166C28.5361 41.3954 28.7752 41.2721 28.9421 41.0739C29.109 40.8757 29.1899 40.6191 29.1668 40.3611C28.6187 35.0969 24.1817 31.0978 18.889 31.0978C13.5963 31.0978 9.15932 35.0969 8.61123 40.3611C8.61849 40.6189 8.72796 40.8634 8.91552 41.0405C9.10308 41.2176 9.35335 41.313 9.61123 41.3055Z" fill="#6F4FF6"/>
</svg>
