<svg xmlns="http://www.w3.org/2000/svg" width="77" height="30" viewBox="0 0 77 30">
    <g fill="#B8CFD7" fill-rule="evenodd">
        <path fill-rule="nonzero" d="M10.345 6.667c-5.379 0-9.861 2.317-9.861 9.307 0 5.539 3.014 9.026 10 9.026 8.223 0 8.75-5.5 8.75-5.5h-3.985s-.854 2.962-5.008 2.962c-3.384 0-5.817-2.321-5.817-5.574H19.65v-2.042c0-3.218-2.013-8.18-9.306-8.18zm-.139 2.609c3.22 0 5.417 2.003 5.417 5.006H4.512c0-3.188 2.866-5.006 5.694-5.006z"/>
        <path fill-rule="nonzero" d="M18.904 0v21.458c0 1.218-.087 2.929-.087 2.929h3.81s.137-1.228.137-2.351c0 0 1.883 2.964 7.002 2.964 5.39 0 9.051-3.767 9.051-9.163 0-5.02-3.363-9.057-9.043-9.057-5.318 0-6.971 2.89-6.971 2.89V0h-3.9zm9.887 9.434c3.66 0 5.988 2.734 5.988 6.403 0 3.935-2.688 6.509-5.962 6.509-3.907 0-6.014-3.07-6.014-6.474 0-3.17 1.89-6.438 5.988-6.438z"/>
        <path fill-rule="nonzero" d="M48.678 6.667c-8.092 0-8.61 4.474-8.61 5.189h4.027s.211-2.612 4.306-2.612c2.66 0 4.722 1.23 4.722 3.594v.841H48.4c-6.27 0-9.584 1.852-9.584 5.61 0 3.699 3.062 5.711 7.2 5.711 5.64 0 7.458-3.147 7.458-3.147 0 1.252.095 2.485.095 2.485h3.58s-.138-1.529-.138-2.507v-8.454c0-5.544-4.428-6.71-8.334-6.71zm4.445 9.537v1.122c0 1.463-.895 5.101-6.16 5.101-2.882 0-4.118-1.453-4.118-3.138 0-3.066 4.162-3.085 10.278-3.085z"/>
        <path d="M56.317 8.333h4.19l6.014 12.17 6-12.17h3.796L65.388 30h-3.981l3.153-6.04z"/>
    </g>
</svg>
