<svg width="17" height="19" viewBox="0 0 17 19" fill="none" xmlns="http://www.w3.org/2000/svg">
<path fill-rule="evenodd" clip-rule="evenodd" d="M14.4762 0H1.80952C0.805238 0 0 0.814286 0 1.80952V14.4762C0 15.4714 0.805238 16.2857 1.80952 16.2857H5.42857L8.14286 19L10.8571 16.2857H14.4762C15.4714 16.2857 16.2857 15.4714 16.2857 14.4762V1.80952C16.2857 0.814286 15.4714 0 14.4762 0V0ZM9.04762 14.4762H7.2381V12.6667H9.04762V14.4762V14.4762ZM10.9205 7.46429L10.1062 8.29667C9.45476 8.95714 9.04762 9.5 9.04762 10.8571H7.2381V10.4048C7.2381 9.40952 7.64524 8.50476 8.29667 7.84429L9.41857 6.70429C9.75333 6.37857 9.95238 5.92619 9.95238 5.42857C9.95238 4.43333 9.1381 3.61905 8.14286 3.61905C7.14762 3.61905 6.33333 4.43333 6.33333 5.42857H4.52381C4.52381 3.42905 6.14333 1.80952 8.14286 1.80952C10.1424 1.80952 11.7619 3.42905 11.7619 5.42857C11.7619 6.22476 11.4362 6.94857 10.9205 7.46429V7.46429Z" fill="#BACEE4"/>
</svg>
