<svg width="177" height="20" viewBox="0 0 177 20" fill="none" xmlns="http://www.w3.org/2000/svg">
<path d="M0.284337 12.0567L0 14.6099L0.284337 17.1631C0.284337 17.305 0.426506 17.305 0.426506 17.305C0.568675 17.305 0.568675 17.1631 0.568675 17.1631L0.995181 14.6099L0.568675 12.0567C0.568675 11.9149 0.426506 11.9149 0.426506 11.9149C0.426506 11.9149 0.284337 11.9149 0.284337 12.0567ZM1.99036 10.4965L1.56386 14.6099L1.99036 18.7234C1.99036 18.8652 2.13253 18.8652 2.13253 18.8652C2.2747 18.8652 2.2747 18.7234 2.2747 18.7234L2.84337 14.6099L2.2747 10.4965C2.2747 10.3546 2.13253 10.3546 2.13253 10.3546L1.99036 10.4965ZM7.39277 9.92908L7.10843 14.6099L7.39277 19.5745C7.39277 19.7163 7.53494 19.8582 7.67711 19.8582C7.81928 19.8582 7.96145 19.7163 7.96145 19.5745L8.53012 14.6099L8.10361 9.92908C8.10361 9.78723 7.96145 9.64539 7.81928 9.64539C7.53494 9.64539 7.39277 9.78723 7.39277 9.92908ZM3.83855 9.64539L3.41205 14.6099L3.83855 19.2908C3.83855 19.4326 3.98072 19.5745 4.12289 19.5745C4.12289 19.5745 4.26506 19.4326 4.26506 19.2908L4.69157 14.6099L4.26506 9.64539C4.26506 9.50355 4.12289 9.3617 3.98072 9.3617C3.98072 9.50355 3.83855 9.50355 3.83855 9.64539ZM5.54458 9.50355L5.11807 14.6099L5.54458 19.4326C5.54458 19.5745 5.68675 19.7163 5.82892 19.7163C5.97108 19.7163 6.11325 19.5745 6.11325 19.4326L6.53976 14.6099L6.11325 9.50355C6.11325 9.3617 5.97108 9.21986 5.82892 9.21986C5.68675 9.21986 5.68675 9.3617 5.54458 9.50355ZM9.24096 6.95035L8.81446 14.6099L9.24096 19.5745C9.24096 19.7163 9.38313 19.8582 9.5253 19.8582C9.80964 19.8582 9.95181 19.7163 9.95181 19.5745L10.3783 14.6099L9.95181 6.95035C9.95181 6.80851 9.80964 6.66667 9.66747 6.66667C9.38313 6.66667 9.24096 6.80851 9.24096 6.95035ZM11.0892 5.24823L10.8048 14.6099L11.0892 19.5745C11.0892 19.8582 11.2313 20 11.5157 20C11.6578 20 11.9422 19.8582 11.9422 19.5745L12.3687 14.6099L11.9422 5.24823C11.9422 4.96454 11.8 4.82269 11.5157 4.82269C11.2313 4.82269 11.0892 4.96454 11.0892 5.24823ZM98.8072 4.68085V10.0709V12.9078C98.6651 12.6241 98.2386 11.9149 97.9542 11.4894L93.4048 4.68085H90.988V17.5887H93.547V11.9149V9.07801C93.6892 9.3617 94.1157 10.0709 94.4 10.4965L99.0916 17.5887H101.366V4.68085H98.8072ZM107.337 7.23404H108.759C111.46 7.23404 112.598 8.51064 112.598 11.2057C112.598 13.617 111.318 15.1773 108.617 15.1773H107.337V7.23404ZM104.778 17.5887H108.617C111.887 17.5887 115.299 15.7447 115.299 11.2057C115.299 6.52482 112.598 4.82269 108.901 4.82269H104.778V4.68085V17.5887ZM130.227 4.68085V17.5887H138.046V15.0355H132.928V4.68085H130.227ZM169.181 7.23404H170.602C173.304 7.23404 174.441 8.51064 174.441 11.2057C174.441 13.617 173.161 15.1773 170.46 15.1773H169.181V7.23404ZM166.622 17.5887H170.46C173.304 17.5887 176.289 16.1702 177 12.766V9.50355C176.431 6.09929 174.014 4.82269 170.745 4.82269H166.622V4.68085C166.622 4.68085 166.622 17.5887 166.622 17.5887ZM51.8916 8.36879C51.8916 10.922 53.5976 11.6312 55.8723 12.1986C58.2892 12.766 58.7157 13.0496 58.7157 13.9007C58.7157 14.8936 58.0048 15.3191 56.441 15.3191C55.1614 15.3191 54.0241 14.8936 53.1711 13.9007L51.3229 15.6028C52.3181 17.0213 54.1663 18.0142 56.2988 18.0142C59.853 18.0142 61.4169 16.3121 61.4169 13.9007C61.4169 11.0638 59.1422 10.3546 57.1518 9.92908C55.1614 9.50355 54.5928 9.21986 54.5928 8.36879C54.5928 7.80142 55.0193 7.23404 56.441 7.23404C57.5783 7.23404 58.5735 7.65957 59.4265 8.51064L61.2747 6.66667C59.9952 5.39007 58.5735 4.68085 56.5831 4.68085C56.441 4.68085 56.2988 4.68085 56.1566 4.68085C53.7398 4.68085 51.8916 6.09929 51.8916 8.36879ZM66.1084 11.2057C66.1084 8.93617 66.9614 7.0922 69.094 7.0922C71.2265 7.0922 72.0795 8.93617 72.0795 11.2057C72.0795 13.4752 71.2265 15.3191 69.094 15.3191C66.9614 15.3191 66.1084 13.4752 66.1084 11.2057ZM63.4072 11.2057C63.4072 15.1773 65.5398 17.8723 68.9518 17.8723C72.506 17.8723 74.6386 15.1773 74.6386 11.2057C74.6386 7.23404 72.506 4.53901 68.9518 4.53901C65.5398 4.53901 63.4072 7.23404 63.4072 11.2057ZM85.159 4.53901V11.9149C85.159 14.0426 84.1639 15.3191 82.4578 15.3191C80.7518 15.3191 79.7566 14.0426 79.7566 11.9149V4.68085H77.1976V11.9149C77.1976 15.6028 79.3301 17.7305 82.4578 17.7305C85.7277 17.7305 87.7181 15.6028 87.7181 11.773V4.53901H85.159ZM117.431 11.2057C117.431 15.3191 119.706 17.8723 123.118 17.8723C125.535 17.8723 126.957 16.7376 127.952 14.8936L125.819 13.617C125.108 14.7518 124.398 15.3191 123.26 15.3191C121.27 15.3191 120.133 13.617 120.133 11.2057C120.133 8.79433 121.27 7.0922 123.118 7.0922C124.255 7.0922 124.966 7.65957 125.535 8.51064L127.952 7.37589C127.099 5.67376 125.677 4.53901 123.26 4.53901C119.848 4.53901 117.431 7.23404 117.431 11.2057ZM141.884 11.2057C141.884 8.93617 142.737 7.0922 144.87 7.0922C147.002 7.0922 147.855 8.93617 147.855 11.2057C147.855 13.4752 147.002 15.3191 144.87 15.3191C142.737 15.3191 141.884 13.4752 141.884 11.2057ZM139.183 11.2057C139.183 15.1773 141.316 17.8723 144.728 17.8723C148.282 17.8723 150.272 15.1773 150.272 11.2057C150.272 7.23404 148.14 4.53901 144.728 4.53901C141.316 4.53901 139.183 7.23404 139.183 11.2057ZM160.793 4.53901V11.9149C160.793 14.0426 159.798 15.3191 158.092 15.3191C156.386 15.3191 155.39 14.0426 155.39 11.9149V4.68085H152.831V11.9149C152.831 15.6028 154.964 17.7305 158.092 17.7305C161.361 17.7305 163.352 15.6028 163.352 11.773V4.53901H160.793ZM18.6241 4.82269L18.3398 14.6099L18.6241 19.2908C18.6241 19.5745 18.9084 19.8582 19.1928 19.8582C19.4771 19.8582 19.7614 19.5745 19.7614 19.2908L20.0458 14.6099L19.7614 4.68085C19.7614 4.39716 19.4771 4.11348 19.1928 4.11348C18.7663 4.25532 18.6241 4.39716 18.6241 4.82269ZM12.9374 4.39716L12.653 14.6099L12.9374 19.4326C12.9374 19.7163 13.0795 19.8582 13.3639 19.8582C13.6482 19.8582 13.7904 19.7163 13.7904 19.4326L14.0747 14.6099L13.7904 4.39716C13.7904 4.11347 13.6482 3.97163 13.3639 3.97163C13.0795 3.97163 12.9374 4.25532 12.9374 4.39716ZM16.6337 4.39716L16.3494 14.6099L16.6337 19.4326C16.6337 19.7163 16.9181 20 17.2024 20C17.4867 20 17.7711 19.7163 17.7711 19.4326L18.0554 14.6099L17.7711 4.39716C17.7711 4.11347 17.4867 3.82979 17.2024 3.82979C16.9181 3.82979 16.6337 4.11347 16.6337 4.39716ZM14.7855 4.11348L14.5012 14.6099L14.7855 19.4326C14.7855 19.7163 14.9277 19.8582 15.212 19.8582C15.4964 19.8582 15.6386 19.7163 15.6386 19.4326L15.9229 14.6099L15.6386 4.11348C15.6386 3.82979 15.3542 3.68794 15.212 3.68794C15.0699 3.68794 14.7855 3.82979 14.7855 4.11348ZM20.4723 2.83688L20.188 14.6099L20.4723 19.2908C20.4723 19.5745 20.7566 19.8582 21.041 19.8582C21.3253 19.8582 21.6096 19.5745 21.6096 19.2908L21.894 14.6099L21.6096 2.83688C21.6096 2.55319 21.3253 2.2695 21.041 2.2695C20.7566 2.2695 20.4723 2.55319 20.4723 2.83688ZM22.4627 1.84397L22.1783 14.6099L22.4627 19.2908C22.4627 19.5745 22.747 19.8582 23.0313 19.8582C23.3157 19.8582 23.6 19.5745 23.6 19.2908L23.8843 14.6099L23.6 1.84397C23.6 1.56028 23.3157 1.2766 23.0313 1.2766H22.8892C22.6048 1.2766 22.4627 1.56028 22.4627 1.84397ZM24.7373 0.567376C24.3108 0.70922 24.1687 0.851064 24.1687 1.2766V19.2908C24.1687 19.5745 24.453 19.8582 24.7373 20H40.5181C43.6458 20 46.2048 17.4468 46.2048 14.3262C46.2048 11.2057 43.6458 8.65248 40.5181 8.65248C39.8072 8.65248 38.9542 8.79433 38.3855 9.07801C37.959 3.97163 33.694 0 28.4337 0C28.1494 0 28.0072 0 27.7229 0C26.7277 0 25.7325 0.283688 24.7373 0.567376Z" fill="#B8CFD7"/>
</svg>
