<svg xmlns="http://www.w3.org/2000/svg" width="103" height="30" viewBox="0 0 103 30">
    <path fill="#B7CFD7" fill-rule="evenodd" d="M22.602 16.353c-.653 1.962-2.08 4.362-4.28 7.199-3.13 4.082-5.78 6.123-7.947 6.123-1.342 0-2.479-1.243-3.406-3.729l-1.86-6.837c-.689-2.485-1.427-3.729-2.218-3.729-.172 0-.775.364-1.807 1.088L0 15.068a289.771 289.771 0 0 0 3.361-3.006c1.516-1.314 2.654-2.005 3.413-2.074 1.792-.173 2.895 1.056 3.31 3.686.447 2.838.756 4.604.93 5.294.517 2.355 1.085 3.531 1.706 3.531.483 0 1.206-.764 2.172-2.29.964-1.528 1.481-2.69 1.55-3.49.138-1.317-.379-1.978-1.55-1.978-.552 0-1.12.127-1.705.379 1.132-3.719 3.295-5.525 6.487-5.422 2.132.063 3.248 1.319 3.346 3.767l1.544-1.403c1.483-1.314 2.586-2.005 3.311-2.074 1.137-.103 1.973.232 2.508 1.007.533.776.731 1.782.595 3.022-.449 2.101-.932 4.77-1.45 8.006-.034 1.482.501 2.221 1.604 2.221.482 0 1.344-.51 2.586-1.534l.05-.043c.075-.721.203-1.577.378-2.568.284-1.603.443-2.852.476-3.749.068-.62-.087-.93-.465-.93-.207 0-.794.35-1.76 1.048l-1.24-1.4c.172-.136 1.257-1.14 3.258-3.006 1.448-1.347 2.43-2.038 2.947-2.073.896-.07 1.62.302 2.172 1.114.551.812.828 1.755.828 2.826 0 .345-.035.674-.103.985a9.53 9.53 0 0 1 1.81-2.075c1.586-1.381 3.362-2.16 5.327-2.333 1.69-.138 2.895.259 3.62 1.192.586.761.86 1.85.827 3.267.242-.206.5-.431.777-.674.792-.933 1.568-1.676 2.326-2.229 1.275-.933 2.604-1.452 3.982-1.556 1.655-.138 2.844.258 3.568 1.188.62.758.896 1.842.829 3.253-.035.965-.268 2.369-.699 4.211-.432 1.842-.647 2.9-.647 3.176-.034.724.035 1.223.207 1.498.173.276.585.412 1.241.412.295 0 .732-.19 1.311-.575a9.076 9.076 0 0 1-.07-1.355c.033-2.799 1.276-5.46 3.724-7.984 2.689-2.763 5.86-4.147 9.515-4.147 3.38 0 5.171 1.38 5.378 4.138.138 1.758-.828 3.569-2.895 5.43-2.208 2.036-4.984 3.328-8.327 3.88.62.862 1.55 1.292 2.792 1.292 2.482 0 5.189-.632 8.12-1.898l.389-.17-.054-.64c-.174-2.97.895-5.697 3.207-8.182 2.481-2.76 5.6-4.14 9.36-4.14 2.411 0 4.238.811 5.48 2.433 1.173 1.485 1.707 3.4 1.603 5.746-.138 3.175-1.31 5.92-3.515 8.232-2.207 2.312-4.949 3.468-8.224 3.468-2.723 0-4.792-.88-6.205-2.641a6.95 6.95 0 0 1-.818-1.31 28.34 28.34 0 0 1-1.17.696c-3.655 2.106-7.362 3.158-11.12 3.158-2.792 0-4.793-.933-6-2.799l-.249-.405-.111.102c-2.31 2.004-4.62 3.005-6.93 3.005-2.242 0-3.327-1.242-3.258-3.73.033-1.107.25-2.435.645-3.99.396-1.555.613-2.764.647-3.627.035-1.313-.363-1.97-1.194-1.97-.899 0-1.97 1.072-3.216 3.215-1.314 2.247-2.025 4.424-2.127 6.532-.07 1.488.075 2.63.435 3.423-2.406.07-4.092-.329-5.053-1.192-.861-.761-1.255-2.022-1.186-3.785.033-1.107.203-2.213.508-3.319.304-1.106.473-2.09.508-2.956.07-1.279-.398-1.918-1.398-1.918-.865 0-1.797.986-2.798 2.956-1 1.97-1.553 4.027-1.656 6.17-.07 1.937.054 3.283.37 4.044-2.366.07-4.047-.43-5.041-1.5-.456-.494-.774-1.13-.95-1.908l-.601.55c-2.311 2.004-4.62 3.005-6.93 3.005-1.07 0-1.889-.345-2.457-1.037-.568-.69-.836-1.587-.8-2.694.032-1.139.386-2.901 1.058-5.285.673-2.383 1.01-3.662 1.01-3.835 0-.897-.311-1.347-.931-1.347-.195 0-.73.325-1.601.973zm74.515 1.523c.035-.935-.095-1.793-.39-2.571-.292-.78-.715-1.17-1.265-1.17-1.759 0-3.207.953-4.343 2.858-.967 1.559-1.484 3.22-1.552 4.986-.035.867.12 1.629.465 2.287.378.762.913 1.142 1.604 1.142 1.55 0 2.879-.917 3.982-2.753.93-1.524 1.429-3.117 1.499-4.779zm-19.934-1.743c.033-.927-.345-1.392-1.137-1.392-1.033 0-2.082.714-3.15 2.141-1.066 1.427-1.618 2.794-1.65 4.1-.02 0-.02.224 0 .671a11.632 11.632 0 0 0 4.388-2.836c.997-1.1 1.514-1.996 1.549-2.684zM32.736 3.162c-.035.86-.466 1.686-1.294 2.477-.93.894-2.034 1.341-3.31 1.341-1.964 0-2.913-.86-2.844-2.579.033-.894.56-1.754 1.576-2.58C27.882.996 29.01.583 30.253.583c.723 0 1.327.285 1.81.851.482.568.706 1.144.673 1.728z"/>
</svg>
