<svg width="50" height="36" viewBox="0 0 50 36" fill="none" xmlns="http://www.w3.org/2000/svg">
<path d="M15.0834 14.0556C18.9648 14.0556 22.1112 10.9091 22.1112 7.02778C22.1112 3.14644 18.9648 0 15.0834 0C11.2021 0 8.05566 3.14644 8.05566 7.02778C8.05566 10.9091 11.2021 14.0556 15.0834 14.0556Z" fill="#FFD739"/>
<path d="M36.7777 14.3334C39.2653 14.299 41.4862 12.7666 42.4013 10.4533C43.3165 8.13988 42.7449 5.50291 40.9541 3.77603C39.1632 2.04915 36.5072 1.57384 34.2287 2.57247C31.9501 3.5711 30.4995 5.8462 30.5555 8.33338C30.5555 11.7238 33.304 14.4723 36.6944 14.4723L36.7777 14.3334Z" fill="#FFD739"/>
<path d="M27.1111 22.9722C26.3632 22.0576 25.5257 21.2201 24.6111 20.4722C21.9055 18.2379 18.5089 17.0108 15 17C6.71573 17 0 23.7157 0 32V34.7778C0 35.3301 0.447715 35.7778 1 35.7778H29.1667C29.719 35.7778 30.1667 35.3301 30.1667 34.7778V32.1944C30.208 28.8652 29.1321 25.6182 27.1111 22.9722Z" fill="#FFD739"/>
<path d="M47.2222 22.2223C43.0625 16.6651 35.2922 15.3132 29.5 19.1389C30.3514 19.8834 31.1156 20.7221 31.7778 21.6389C33.6185 24.1399 34.5937 27.1727 34.5556 30.2778V32.7778C34.5553 33.2734 34.9491 33.6795 35.4444 33.6945H48.8611C49.3618 33.6954 49.7761 33.3054 49.8056 32.8056C49.8178 32.7134 49.8178 32.62 49.8056 32.5278V30.0278C49.8156 27.2144 48.9087 24.4742 47.2222 22.2223Z" fill="#FFD739"/>
</svg>
