<svg xmlns="http://www.w3.org/2000/svg" viewBox="0 0 14.89 19.95"><defs><style>.cls-1{fill:#bcced6;}</style></defs><title>Asset 64</title><g id="Layer_2" data-name="Layer 2"><g id="Layer_1-2" data-name="Layer 1"><path class="cls-1" d="M13.68,0H1.21A1.21,1.21,0,0,0,0,1.21V2.1H14.89V1.21A1.21,1.21,0,0,0,13.68,0Z"/><path class="cls-1" d="M0,4.29V18.74A1.21,1.21,0,0,0,1.21,20H13.68a1.21,1.21,0,0,0,1.21-1.21V4.29ZM7.44,7.72A1.93,1.93,0,1,1,5.52,9.65,1.92,1.92,0,0,1,7.44,7.72Zm3.72,8.8H3.73a.39.39,0,0,1-.4-.42,4.14,4.14,0,0,1,8.23,0A.39.39,0,0,1,11.16,16.52Z"/></g></g></svg>