<svg width="46" height="46" viewBox="0 0 46 46" fill="none" xmlns="http://www.w3.org/2000/svg">
<path d="M10.751 21.2002L20.876 11.0752L19.001 9.15018L17.101 7.30018L15.251 5.40018L13.376 3.55018L10.526 0.700182C10.1357 0.347172 9.54139 0.347172 9.15103 0.700182L1.37603 8.42518C0.517235 9.37673 0.517235 10.8236 1.37603 11.7752L10.751 21.2002Z" fill="#00D4AE"/>
<path d="M1.07591 45.0002L13.3259 40.2252C13.4324 40.1859 13.5187 40.1056 13.5657 40.0023C13.6126 39.899 13.6163 39.7812 13.5759 39.6752C13.5831 39.6254 13.5831 39.5749 13.5759 39.5252L5.65091 31.6002C5.48833 31.4508 5.23849 31.4508 5.07591 31.6002C5.06299 31.6578 5.06299 31.7175 5.07591 31.7752L0.100912 44.0002C-0.00900472 44.1779 -0.0303977 44.3965 0.0429798 44.5922C0.116357 44.7879 0.276229 44.9385 0.475912 45.0002C0.668823 45.0755 0.883 45.0755 1.07591 45.0002Z" fill="#00D4AE"/>
<path d="M41.5259 31.7251L38.1009 28.2501L35.6009 25.7501L34.7509 25.0001L34.0259 24.2751L23.9009 34.3251L33.2509 43.7001C34.2098 44.5894 35.692 44.5894 36.6509 43.7001L44.3509 35.9251C44.7382 35.5194 44.7382 34.8809 44.3509 34.4751L41.5259 31.7251Z" fill="#00D4AE"/>
<path d="M8.37598 27.4001L17.726 36.8251L38.926 15.6251L29.551 6.25012L8.37598 27.4001Z" fill="#00D4AE"/>
<path d="M41.7008 12.7501L43.9508 10.5001C44.7264 9.73447 45.163 8.69001 45.163 7.60013C45.163 6.51026 44.7264 5.4658 43.9508 4.70013L40.3008 1.20013C39.5364 0.42421 38.49 -0.00874623 37.4008 0.000133958C36.3052 -0.00421146 35.2528 0.427538 34.4758 1.20013L32.2508 3.45013L31.2258 4.50013L40.5758 13.8251L41.7008 12.7501Z" fill="#00D4AE"/>
</svg>
