<?xml version="1.0" encoding="UTF-8"?>
<svg width="18px" height="18px" viewBox="0 0 18 18" version="1.1" xmlns="http://www.w3.org/2000/svg" xmlns:xlink="http://www.w3.org/1999/xlink">
    <!-- Generator: Sketch 54.1 (76490) - https://sketchapp.com -->
    <title>Integrations</title>
    <desc>Created with Sketch.</desc>
    <g id="Page-1" stroke="none" stroke-width="1" fill="none" fill-rule="evenodd">
        <g id="Artboard" transform="translate(-1433.000000, -558.000000)" fill="#BACEE4" fill-rule="nonzero">
            <g id="Integrations" transform="translate(1433.000000, 558.000000)">
                <path d="M3.27,0.82 C3.27,0.367126505 2.90287349,2.77305038e-17 2.45,0 C2.00103657,0.00547556978 1.63996661,0.371003178 1.64,0.82 L1.64,4.09 L0,4.09 L0,9 L4.91,9 L4.91,4.09 L3.27,4.09 L3.27,0.82 Z M6.55,12.27 C6.54944996,13.3074472 7.20238539,14.2327729 8.18,14.58 L8.18,18 L9.82,18 L9.82,14.58 C10.7976146,14.2327729 11.45055,13.3074472 11.45,12.27 L11.4500003,10.64 L6.54999965,10.64 L6.55,12.27 Z M0,12.27 C0.00393524623,13.3090874 0.66032936,14.2336425 1.64,14.58 L1.64,18 L3.27,18 L3.27,14.58 C4.24967064,14.2336425 4.90606475,13.3090874 4.91,12.27 L4.91,10.64 L0,10.64 L0,12.27 Z M16.36,4.09 L16.36,0.82 C16.3600334,0.371003178 15.9989634,0.00547556978 15.55,0 C15.0971265,-2.77305038e-17 14.73,0.367126505 14.73,0.82 L14.73,4.09 L13.09,4.09 L13.09,9 L18,9 L18,4.09 L16.36,4.09 Z M9.82,0.82 C9.82,0.367126505 9.45287349,2.77305038e-17 9,0 C8.54712651,-2.77305038e-17 8.18,0.367126505 8.18,0.82 L8.18,4.09 L6.55,4.09 L6.55,9 L11.45,9 L11.45,4.09 L9.82,4.09 L9.82,0.82 Z M13.09,12.27 C13.0939352,13.3090874 13.7503294,14.2336425 14.73,14.58 L14.73,18 L16.36,18 L16.36,14.58 C17.3396706,14.2336425 17.9960648,13.3090874 18,12.27 L18,10.64 L13.09,10.64 L13.09,12.27 Z" id="Shape"></path>
            </g>
        </g>
    </g>
</svg>