<svg xmlns="http://www.w3.org/2000/svg" width="130" height="30" viewBox="0 0 130 30">
    <g fill="#B8CFD7" fill-rule="evenodd">
        <path fill-rule="nonzero" d="M76.673 9.95c-1.357-2.897-4.686-3.15-6.536-.63-.986 1.26-1.356 2.896-1.726 4.408-.247 1.763-.74 3.4-1.48 4.911-.37.756-.74 1.512-1.356 2.016-.247.377-.617.377-.987.126-.74-.63-1.233-2.645-.863-3.527 1.85-3.778 2.96-7.808 3.206-11.964.124-1.26 0-2.52-.74-3.653C65.328 0 63.725 0 62.615 1.385c-.616.756-1.11 1.638-1.356 2.645-1.356 4.408-1.48 9.068-.617 13.602.247 1.637-.246 2.519-1.356 3.274-.123.126-.37.252-.493.378-1.233.756-2.096.504-2.713-.755-.37-.756-.617-1.638-.74-2.393-.123-.378 0-.756.123-1.134 1.85-3.526 3.206-7.304 3.33-11.335 0-1.259-.124-2.644-.74-3.778-.74-1.133-1.85-1.385-2.96-.63-.37.252-.616.63-.986 1.008-1.233 1.637-1.603 3.652-1.85 5.667-.37 3.527-.246 7.053.247 10.58 0 .251 0 .377-.123.63-1.11 1.259-2.467 2.392-4.193 2.77-1.233.252-2.096-.126-2.713-1.26-.493-.755-.616-1.637-.616-2.518-.124-1.26-.124-1.26.986-1.134h.493c2.713-.378 4.193-2.14 4.07-4.912 0-1.763-.863-3.022-2.343-3.526-1.357-.504-3.083 0-4.07 1.26-.74.881-1.233 1.889-1.602 3.022-.124.504-.37 1.008-.494 1.511-.493-.251-.986-.503-1.48-.63-.493-.125-.616-.503-.616-1.007.247-3.526.247-6.8.493-10.075C40.42.882 39.556.125 37.83 0c-.493 0-.863.126-.863.882.247 3.526.123 7.178.123 10.705 0 .63-.123.63-.74.63-.986-.127-2.096-.378-3.082-.378-.617 0-.617-.252-.617-.882.123-1.637.123-3.149.247-4.786.123-2.14-1.11-2.645-2.59-2.77-.616 0-.74.125-.74.755.124 2.267.124 4.534.124 6.675 0 1.134 0 1.134-1.11 1.385a19.3 19.3 0 0 0-2.466.882c-.247.126-.37.126-.617.378-.616.504-.616 1.385-.247 2.14.37.757.987.253 1.357.127.863-.378 1.85-.756 2.836-1.134v.882c-.123 3.652-.247 7.305-.247 10.957 0 1.26.247 2.519 1.48 3.148 0 0 .37.252.74.378s1.11-.252 1.11-.252c.123-.126.123-.377.123-.503-.123-.882-.123-1.89-.247-2.771-.123-4.03-.123-7.934 0-11.965 0-.252.124-.503.37-.503 1.11 0 2.22-.252 3.453-.126.617 0 .74.252.74.755-.123 2.267-.123 4.66-.123 6.927 0 1.89.863 2.645 2.712 2.645.494 0 .617-.126.617-.63-.247-2.519-.247-5.037-.247-7.556 0-1.512 0-1.386 1.357-.882.493.252.616.504.616 1.008 0 .881 0 1.637.124 2.518.246 1.638.863 3.023 2.22 4.03 1.726 1.386 3.575 1.134 5.548.253 1.357-.63 2.343-1.512 3.33-2.645.246.504.37.881.616 1.26 1.233 2.014 2.836 2.518 4.81 1.762.616-.252 1.109-.503 1.602-.881.493-.378.987-.882 1.48-1.386.37.756.863 1.386 1.48 2.015 1.233 1.008 2.59.756 3.576-.755a13.47 13.47 0 0 0 1.85-3.527c.246 1.134.493 2.016.862 2.771 1.11 2.393 4.563 2.77 6.043.504.246-.504.616-1.008.863-1.511 1.11-2.52 1.356-5.164 1.11-7.809 0-.755-.247-1.763-.74-2.77zM44.859 14.86c.246-1.385.493-2.77 1.11-4.156.246-.504.493-1.26 1.11-1.26.74 0 .74.756.863 1.386.616 1.89-.37 4.03-2.097 4.408h-.37c-.493.126-.74.126-.616-.378zm11.098-9.95c.123-.377.246-.629.493-1.007.123-.126.247-.378.493-.378.247 0 .247.252.37.504.247 1.008.123 2.015 0 3.023-.247 2.14-.863 4.282-1.603 6.423-.123.378-.247.755-.74 1.26 0-3.527 0-6.676.987-9.824zm8.138-.251c.123-.504.247-.882.493-1.26.124-.125.124-.251.37-.251.247 0 .247.251.247.377s.123.378.123.63c.124 3.778-.493 7.43-2.096 10.831-.123-3.526-.123-7.053.863-10.327zm9.865 15.995c-.123.251-.247.63-.493.755-.494.63-1.11.63-1.48-.126-.617-1.007-.74-2.14-.863-3.274v-1.637c0-1.89.123-3.779.986-5.542.124-.252.247-.504.494-.756.863-.881 1.726-.755 2.22.378.492 1.134.616 2.267.616 3.4-.247 2.394-.494 4.66-1.48 6.802z"/>
        <path d="M126.964 5.834c-.812 0-1.044.131-1.044 1.176v6.402c0 .654-.232.915-.695.784H123.6c-.58 0-.695-.26-.695-.784V7.01c0-.914-.116-1.045-.928-1.045h-.927c-.928 0-1.044.13-1.044 1.176v16.463c0 2.351-.232 2.22 1.971 2.09.928 0 1.044-.13 1.044-1.176v-6.533c0-.653.231-.784.695-.784h1.74c.463 0 .695.131.695.784v5.75c0 2.351-.116 2.09 1.971 2.09.928 0 1.044-.131 1.044-1.176V8.317c-.348-2.613-.116-2.483-2.203-2.483z"/>
        <path fill-rule="nonzero" d="M94.905 16.826c.717-.397 1.194-1.192 1.433-2.12.478-1.72.359-3.31.12-5.032-.359-2.649-1.553-3.84-4.061-3.84h-3.822c-.836 0-1.075.132-1.075 1.191v17.747c0 .927.239 1.06.955 1.06h1.075c.956 0 1.075-.133 1.075-1.192v-6.49c0-.662.24-.794.836-.662.359.133.359.397.478.795.478 1.854.836 3.708 1.314 5.43.597 2.251.239 2.119 2.508 2.119.836 0 .956-.133.717-1.06-.598-2.384-1.314-4.768-1.911-7.019 0-.397 0-.795.358-.927zm-1.314-3.444c-.239 1.192-1.552 1.987-2.627 1.457-.24-.132-.24-.397-.24-.662v-2.516-2.517c-.119-.397.12-.53.478-.53h.12c1.791-.132 2.27.398 2.389 2.385 0 .794 0 1.589-.12 2.383z"/>
        <path d="M114.853 12.756c-.726-.76-1.452-1.392-2.057-2.278-.484-.632-.726-1.265-.605-2.15 0-.887.605-1.52 1.452-1.52.726-.126 1.21.254 1.452 1.266.121.506.121 1.012.121 1.519 0 .632.242.885.847.885h1.331c.484 0 .726-.253.726-.759 0-1.012-.121-2.024-.363-2.91-.242-.76-.726-1.392-1.331-1.898-1.573-1.013-3.872-1.013-5.444.126-1.21.886-1.936 3.037-1.573 4.935.363 1.645 1.21 2.91 2.298 4.176.847.886 1.936 1.771 2.662 2.784.605.759.968 1.518.968 2.53 0 1.013-.484 1.772-1.21 1.772-1.21.126-1.694-.253-2.057-1.392-.12-.506-.12-1.139-.12-1.645 0-.76-.243-1.012-.968-.886h-.363c-1.452 0-1.452 0-1.452 1.645 0 3.543 1.815 5.441 5.202 5.188 1.815-.126 3.267-1.392 3.75-3.163.485-1.898.122-3.543-.846-5.188-.726-1.266-1.573-2.151-2.42-3.037zM107.441 22.807h-3.596c-.496 0-.744-.132-.744-.658v-4.605c0-.526.124-.79.62-.658h1.364c1.736 0 1.736 0 1.736-1.842 0-.658-.248-.921-.868-.921h-2.108c-.372 0-.62-.132-.62-.658V9.386c0-.526.124-.658.62-.658h2.728c1.737 0 1.737 0 1.737-1.842 0-.921-.124-1.053-1.117-1.053h-6.077c-.868 0-1.116.132-1.116 1.185v17.5c0 1.052.124 1.184 1.116 1.315h5.457c1.86 0 1.737 0 1.737-1.973.124-.79-.248-1.053-.869-1.053zM85.564 5.833h-6.127c-.857 0-1.102.132-1.102 1.184v16.578c0 2.369-.123 2.237 2.083 2.237.857 0 .98-.132.98-1.053v-6.973c0-.526.122-.79.612-.658h1.47c1.839 0 1.839 0 1.716-1.842 0-.657-.245-.92-.857-.92h-2.083c-.613 0-.858-.132-.736-.79V9.78c0-.526.123-.789.736-.789h2.695c1.593 0 1.716 0 1.716-1.71-.123-1.316-.245-1.448-1.103-1.448z"/>
        <path fill-rule="nonzero" d="M19.82 7.948c.122.388.488.646.488 1.163-.489-.13-.733-.646-1.1-.905-3.056-3.358-8.802-4.133-12.47-2.066C3.07 8.206.87 11.306.625 15.698c-.122 1.162 0 2.324-.366 3.487 0 .129-.49 1.162-.123 2.325v.129c.245.775.856 1.291 1.59 1.42 1.344.388 2.445 1.034 3.667 1.68.49.258.978.387 1.467.645 3.668 1.034 6.969.259 10.025-2.066 2.445-1.808 3.912-4.392 4.401-7.491.49-2.067.367-4.133.367-6.2 0-1.033-.733-1.679-1.834-1.679zm-7.58.646c-1.223 0-2.323.13-3.424.646-.733.258-.855-.388-1.1-.775-.244-.517.122-.775.49-.904 1.833-.775 3.789-.775 5.623-.388 1.222.258 2.445.646 3.545 1.42.122 0 .122.13.367.388-1.956-.258-3.79-.516-5.501-.387z"/>
    </g>
</svg>
