<svg xmlns="http://www.w3.org/2000/svg" width="65" height="30" viewBox="0 0 65 30">
    <g fill="#B8CFD7" fill-rule="nonzero">
        <path d="M53.748.029H43.17l.015 4.916C38.71-.308 32.744.004 32.744.004h-15.46L0 29.95h11.629l3.571-6.329 6.788-.008v6.368L32.51 30s6.08.12 10.637-4.989l-.007 4.942h9.916l.008-6.304h1.026c4.02.312 10.94-3.899 10.91-12.055C64.979 4.831 59.873.03 53.748.03zm-.67 20.004l-3.869.01-.008 6.315-2.448.006v-6.337h-4.33s-2.345 6.091-10.193 6.306l-6.378.033V20l-12.765-.002-3.734 6.356H6.43l12.903-22.45h12.842c8.09.047 10.803 6.957 11.168 9.532h3.411l.004-9.597 6.584.002c4.993.245 7.906 4.48 7.992 7.341.139 4.512-2.985 8.642-8.256 8.85z"/>
        <path d="M28.569 6.72l.003 3.68h3.266c6.433-.016 6.437 9.72-.172 9.702H28.57v3.686h3.118c5.002.027 8.914-3.433 8.906-8.84-.004-3.362-2.832-8.23-8.324-8.23l-3.701.002zm20.777.027v3.69h3.531c2.278.113 2.323 3.45.023 3.437h-3.535V17.6s3.062.019 3.344 0c2.976-.01 5.645-2.097 5.645-5.639 0-3.508-2.74-5.21-5.645-5.21.505-.003-3.363-.003-3.363-.003zm-26.94-.073l3.662-.007v10.949H15l2.126-3.755 5.27.02.01-7.207zm35.97 20.031c.331.326.515.776.508 1.243 0 .493-.17.909-.507 1.252-.32.34-.764.528-1.227.52-.463.01-.908-.18-1.227-.52a1.72 1.72 0 0 1-.503-1.252c0-.487.17-.902.507-1.243a1.64 1.64 0 0 1 1.223-.52c.475 0 .89.173 1.227.52zm.2-.2a1.926 1.926 0 0 0-1.428-.596c-.558 0-1.032.198-1.424.597-.383.378-.596.9-.588 1.442 0 .571.193 1.053.585 1.454.392.4.869.598 1.427.598.559 0 1.036-.2 1.428-.598.395-.403.59-.885.59-1.454a1.956 1.956 0 0 0-.59-1.442zm-1.127 1.349a1.01 1.01 0 0 1-.369.05h-.352v-.813h.33c.433 0 .616.082.616.412 0 .174-.073.291-.225.35zm-1.113 1.21h.392v-.886h.307c.206 0 .348.029.433.073.14.084.206.259.206.518v.178l.012.073.004.025c.003.006.003.013.003.021h.37l-.016-.027a.45.45 0 0 1-.019-.117c-.007-.06-.007-.117-.007-.167v-.167a.584.584 0 0 0-.504-.57c.392-.055.54-.239.54-.55 0-.28-.116-.468-.345-.565a1.66 1.66 0 0 0-.602-.083h-.776v2.244h.002z"/>
    </g>
</svg>
