<svg width="47" height="43" viewBox="0 0 47 43" fill="none" xmlns="http://www.w3.org/2000/svg">
<path d="M46.225 32.25L35.475 43L27.95 35.475L31.175 32.25L35.475 36.55L43 29.025L46.225 32.25ZM23.65 36.55C23.65 33.325 24.725 30.53 26.66 28.165L19.35 23.65V10.75H22.575V21.93L29.24 26.015C31.39 24.51 33.755 23.65 36.55 23.65C38.7 23.65 40.85 24.295 42.57 25.155C42.785 23.865 43 22.79 43 21.5C43 9.675 33.325 0 21.5 0C9.675 0 0 9.675 0 21.5C0 33.325 9.675 43 21.5 43C22.79 43 24.08 42.785 25.155 42.57C24.295 40.85 23.65 38.7 23.65 36.55Z" fill="#FF6F61"/>
</svg>
